<svg xmlns="http://www.w3.org/2000/svg" width="21.505" height="21.502" viewBox="0 0 21.505 21.502">
  <g id="path" transform="translate(-1401.245 -129.248)">
    <path id="path-2" data-name="path" d="M1422,133a3,3,0,0,0-5.12-2.121,3,3,0,0,0-.65,3.269A2.988,2.988,0,0,0,1419,136a3,3,0,0,0,3-3Z" fill="none" stroke="#292d32" stroke-linecap="square" stroke-miterlimit="10" stroke-width="1.5"/>
    <path id="path-3" data-name="path" d="M1422,147a3,3,0,0,0-5.12-2.121,3,3,0,0,0-.65,3.269A2.988,2.988,0,0,0,1419,150a3,3,0,0,0,3-3Z" fill="none" stroke="#292d32" stroke-linecap="square" stroke-miterlimit="10" stroke-width="1.5"/>
    <path id="path-4" data-name="path" d="M1408,140a3,3,0,0,0-5.12-2.121,3,3,0,0,0-.65,3.269A2.988,2.988,0,0,0,1405,143a3,3,0,0,0,3-3Z" fill="none" stroke="#292d32" stroke-linecap="square" stroke-miterlimit="10" stroke-width="1.5"/>
    <path id="path-5" data-name="path" d="M1416.38,134.45l-8.7,4.21" fill="none" stroke="#292d32" stroke-linecap="square" stroke-miterlimit="10" stroke-width="1.5"/>
    <path id="path-6" data-name="path" d="M1407.57,141.53l8.67,4.29" fill="none" stroke="#292d32" stroke-linecap="square" stroke-miterlimit="10" stroke-width="1.5"/>
  </g>
</svg>
