<svg xmlns="http://www.w3.org/2000/svg" width="32" height="32" viewBox="0 0 32 32">
  <g id="vuesax_bulk_house-2" data-name="vuesax/bulk/house-2" transform="translate(-300 -188)">
    <g id="house-2" transform="translate(300 188)">
      <path id="Vector" d="M0,0H32V32H0Z" fill="none" opacity="0"/>
      <g id="Group" transform="translate(1.25 29.25)">
        <path id="Vector-2" data-name="Vector" d="M29.5.75c0,.41-.467.75-1.029.75H1.029C.467,1.5,0,1.16,0,.75S.467,0,1.029,0H28.471C29.033,0,29.5.33,29.5.75Z" fill="#4d39e3"/>
      </g>
      <path id="Vector-3" data-name="Vector" d="M26.05,10.631V26.717H0l.072-16.1A2.822,2.822,0,0,1,1.183,8.375L11.286.61a2.887,2.887,0,0,1,3.55,0l10.1,7.765A2.829,2.829,0,0,1,26.05,10.631Z" transform="translate(2.95 2.533)" fill="#4d39e3" opacity="0.4"/>
      <g id="Group-2" data-name="Group" transform="translate(13.75 9.15)">
        <path id="Vector-4" data-name="Vector" d="M3.75,1.5h-3A.755.755,0,0,1,0,.75.755.755,0,0,1,.75,0h3A.755.755,0,0,1,4.5.75.755.755,0,0,1,3.75,1.5Z" fill="#4d39e3"/>
      </g>
      <path id="Vector-5" data-name="Vector" d="M8.5,0h-7A1.5,1.5,0,0,0,0,1.5V11H10V1.5A1.5,1.5,0,0,0,8.5,0ZM3.75,6.75a.75.75,0,0,1-1.5,0V5.25a.75.75,0,0,1,1.5,0Z" transform="translate(11 19)" fill="#4d39e3"/>
    </g>
  </g>
</svg>
