<svg xmlns="http://www.w3.org/2000/svg" width="32" height="32" viewBox="0 0 32 32">
  <g id="vuesax_bulk_buliding" data-name="vuesax/bulk/buliding" transform="translate(-684 -188)">
    <g id="buliding" transform="translate(684 188)">
      <path id="Vector" d="M0,0H32V32H0Z" fill="none" opacity="0"/>
      <path id="Vector-2" data-name="Vector" d="M28.471,0H1.029C.467,0,0,.34,0,.75s.467.75,1.029.75H28.471c.563,0,1.029-.34,1.029-.75S29.033,0,28.471,0Z" transform="translate(1.25 29.25)" fill="#4d39e3"/>
      <path id="Vector-3" data-name="Vector" d="M20.222,0H5.778C1.444,0,0,2.506,0,5.6V28H26V5.6C26,2.506,24.556,0,20.222,0Z" transform="translate(3 2)" fill="#4d39e3" opacity="0.4"/>
      <g id="Group" transform="translate(8.814 21.35)">
        <path id="Vector-4" data-name="Vector" d="M3.75,1.5h-3A.755.755,0,0,1,0,.75.755.755,0,0,1,.75,0h3A.755.755,0,0,1,4.5.75.755.755,0,0,1,3.75,1.5Z" fill="#4d39e3"/>
      </g>
      <g id="Group-2" data-name="Group" transform="translate(18.686 21.35)">
        <path id="Vector-5" data-name="Vector" d="M3.75,1.5h-3A.755.755,0,0,1,0,.75.755.755,0,0,1,.75,0h3A.755.755,0,0,1,4.5.75.755.755,0,0,1,3.75,1.5Z" fill="#4d39e3"/>
      </g>
      <g id="Group-3" data-name="Group" transform="translate(8.814 15.25)">
        <path id="Vector-6" data-name="Vector" d="M3.75,1.5h-3A.755.755,0,0,1,0,.75.755.755,0,0,1,.75,0h3A.755.755,0,0,1,4.5.75.755.755,0,0,1,3.75,1.5Z" fill="#4d39e3"/>
      </g>
      <g id="Group-4" data-name="Group" transform="translate(18.686 15.25)">
        <path id="Vector-7" data-name="Vector" d="M3.75,1.5h-3A.755.755,0,0,1,0,.75.755.755,0,0,1,.75,0h3A.755.755,0,0,1,4.5.75.755.755,0,0,1,3.75,1.5Z" fill="#4d39e3"/>
      </g>
      <g id="Group-5" data-name="Group" transform="translate(8.814 9.15)">
        <path id="Vector-8" data-name="Vector" d="M3.75,1.5h-3A.755.755,0,0,1,0,.75.755.755,0,0,1,.75,0h3A.755.755,0,0,1,4.5.75.755.755,0,0,1,3.75,1.5Z" fill="#4d39e3"/>
      </g>
      <g id="Group-6" data-name="Group" transform="translate(18.686 9.15)">
        <path id="Vector-9" data-name="Vector" d="M3.75,1.5h-3A.755.755,0,0,1,0,.75.755.755,0,0,1,.75,0h3A.755.755,0,0,1,4.5.75.755.755,0,0,1,3.75,1.5Z" fill="#4d39e3"/>
      </g>
    </g>
  </g>
</svg>
