<svg xmlns="http://www.w3.org/2000/svg" width="32" height="32" viewBox="0 0 32 32">
  <g id="vuesax_bulk_house" data-name="vuesax/bulk/house" transform="translate(-236 -188)">
    <g id="house" transform="translate(236 188)">
      <path id="Vector" d="M0,0H32V32H0Z" fill="none" opacity="0"/>
      <g id="Group" transform="translate(1.25 29.25)">
        <path id="Vector-2" data-name="Vector" d="M28.471,1.5H1.029C.467,1.5,0,1.16,0,.75S.467,0,1.029,0H28.471C29.033,0,29.5.34,29.5.75S29.033,1.5,28.471,1.5Z" fill="#4d39e3"/>
      </g>
      <path id="Vector-3" data-name="Vector" d="M26.05,10.508v16.96H0L.072,10.494A2.778,2.778,0,0,1,1.183,8.279L11.286.6a2.914,2.914,0,0,1,3.55,0L16.77,2.071l6.393,4.854,1.775,1.355A2.785,2.785,0,0,1,26.05,10.508Z" transform="translate(2.95 2.533)" fill="#4d39e3" opacity="0.4"/>
      <path id="Vector-4" data-name="Vector" d="M3.5,0h-2A1.5,1.5,0,0,0,0,1.5V5H5V1.5A1.5,1.5,0,0,0,3.5,0Z" transform="translate(13.5 25)" fill="#4d39e3"/>
      <path id="Vector-5" data-name="Vector" d="M3,3.5H1a1,1,0,0,1-1-1V1A1,1,0,0,1,1,0H3A1,1,0,0,1,4,1V2.5A1,1,0,0,1,3,3.5Z" transform="translate(9.1 14.25)" fill="#4d39e3"/>
      <path id="Vector-6" data-name="Vector" d="M3,3.5H1a1,1,0,0,1-1-1V1A1,1,0,0,1,1,0H3A1,1,0,0,1,4,1V2.5A1,1,0,0,1,3,3.5Z" transform="translate(18.9 14.25)" fill="#4d39e3"/>
      <path id="Vector-7" data-name="Vector" d="M4.43,3.44,0,0H3.41a.994.994,0,0,1,1,.99Z" transform="translate(20.526 5.556)" fill="#4d39e3"/>
    </g>
  </g>
</svg>
